<?xml version="1.0" encoding="utf-8"?>
<!-- Generator: Adobe Illustrator 25.2.0, SVG Export Plug-In . SVG Version: 6.00 Build 0)  -->
<svg version="1.1" id="Layer_1" xmlns="http://www.w3.org/2000/svg" xmlns:xlink="http://www.w3.org/1999/xlink" x="0px" y="0px"
	 viewBox="0 0 3714.1 1060.6" style="enable-background:new 0 0 3714.1 1060.6;" xml:space="preserve">
<style type="text/css">
	.st0{fill:#7C3AED;}
	.st1{fill:url(#SVGID_1_);}
	.st2{fill:#FFFFFF;}
	.st3{filter:url(#Adobe_OpacityMaskFilter);}
	.st4{filter:url(#Adobe_OpacityMaskFilter_1_);}
	.st5{mask:url(#SVGID_2_);fill:url(#SVGID_3_);}
	.st6{filter:url(#Adobe_OpacityMaskFilter_2_);}
	.st7{filter:url(#Adobe_OpacityMaskFilter_3_);}
	.st8{mask:url(#SVGID_4_);fill:url(#SVGID_5_);}
</style>
<g>
	<path class="st0" d="M1179.8,410.6v57.1l-104.6,100.6h103v57.1H994.9v-57.1l107.3-100.6H996.4v-57.1L1179.8,410.6L1179.8,410.6z"/>
	<path class="st0" d="M1344.9,410.6h57.1v214.9h-57.1v-78.9h-97.1v78.9h-57.1V410.6h57.1v78.9h97.1V410.6z"/>
	<path class="st0" d="M1611,546.5c-12.2,0.2-23.7-2.7-34.4-8.7c-10.7-6-19.2-14.3-25.4-25c-6.2-10.6-9.3-22-9.3-34.3
		c0-12.3,3.1-23.8,9.3-34.3c6.2-10.5,14.7-18.8,25.4-24.9c10.7-6,22.2-8.9,34.4-8.7h138.7v57.1h-135.4v21.8h24v57.1H1611z
		 M1691.3,489.4c18.5,0.3,34.3,7,47.3,20.3s19.5,29.1,19.5,47.7c0,18.5-6.5,34.5-19.5,47.7c-13,13.3-28.8,20-47.3,20.3h-134.7v-57.1
		h131.4v-21.7h-24.1v-57.1L1691.3,489.4L1691.3,489.4z"/>
	<path class="st0" d="M1876.9,410.6c14.5,0,28.4,2.9,41.7,8.6c13.3,5.7,24.7,13.4,34.2,22.9s17.1,21,22.8,34.3
		c5.7,13.3,8.5,27.1,8.5,41.7c0,21.8-6,41.7-18.1,59.8c-12.1,18-28.2,31.2-48.3,39.5c-20.1,8.3-40.8,10.3-62.1,6
		c-21.3-4.3-39.6-14.1-55-29.5s-25.2-33.8-29.4-55.1s-2.1-42.1,6.3-62.1c8.4-20,21.6-36,39.7-48.1
		C1835.3,416.4,1855.2,410.5,1876.9,410.6z M1876.9,568.1c13.8,0,25.6-4.9,35.4-14.7s14.7-21.6,14.7-35.4c0-10.2-2.8-19.5-8.4-27.9
		c-5.6-8.4-13.1-14.6-22.5-18.4c-9.4-3.9-19-4.8-29-2.8s-18.6,6.6-25.8,13.8s-11.8,15.8-13.7,25.7c-1.9,9.9-0.9,19.6,3,28.9
		c3.9,9.4,10.1,16.9,18.5,22.5C1857.4,565.3,1866.7,568.1,1876.9,568.1z"/>
	<path class="st0" d="M2051.9,568.3h147.2v57.1h-204.4V410.6h57.1V568.3z"/>
	<path class="st0" d="M2404.7,410.6v117.6c0,12.8-2.5,25.2-7.5,37.1c-5,11.9-12,22.4-21.1,31.5s-19.6,16.1-31.4,21
		c-11.9,4.9-24.3,7.4-37.2,7.4c-13.2,0-25.8-2.6-37.8-7.7s-22.3-12-31-20.6s-15.6-18.9-20.7-30.9s-7.7-24.6-7.7-37.8V410.6h57.1
		v117.6c0,11.2,3.9,20.6,11.8,28.4s17.3,11.7,28.3,11.7s20.5-3.9,28.3-11.7c7.8-7.8,11.8-17.3,11.8-28.4V410.6H2404.7z"/>
	<path class="st0" d="M2415.6,410.6h212.2v57.1h-77.5v214.1h-57.1V467.7h-77.5V410.6z"/>
	<path class="st0" d="M2695.8,625.4h-57.1V410.6h57.1V625.4z"/>
	<path class="st0" d="M2814.4,410.6c14.5,0,28.4,2.9,41.6,8.6c13.3,5.7,24.7,13.4,34.2,22.9s17.1,21,22.8,34.3
		c5.7,13.3,8.5,27.1,8.5,41.7c0,21.8-6,41.7-18.1,59.8c-12.1,18-28.2,31.2-48.3,39.5c-20.1,8.3-40.8,10.3-62.1,6
		c-21.3-4.3-39.6-14.1-55-29.5s-25.2-33.8-29.4-55.1c-4.2-21.4-2.1-42.1,6.3-62.1c8.4-20,21.6-36,39.7-48.1
		C2772.8,416.4,2792.7,410.5,2814.4,410.6z M2814.4,568.1c13.8,0,25.6-4.9,35.4-14.7s14.6-21.6,14.6-35.4c0-10.2-2.8-19.5-8.4-27.9
		c-5.6-8.4-13.1-14.6-22.5-18.4c-9.4-3.9-19-4.8-29-2.8s-18.6,6.6-25.8,13.8s-11.8,15.8-13.7,25.7c-1.9,9.9-0.9,19.6,3,28.9
		s10.1,16.9,18.5,22.5C2795,565.3,2804.3,568.1,2814.4,568.1z"/>
	<path class="st0" d="M3131.2,546.5v39.4v39.5l-141.8-90.3v90.3h-57.1V410.6l141.8,96.9V346.6h57.1V546.5z"/>
	<path class="st0" d="M3289.6,489.4c9.1,0,17.8,1.7,26.1,5.2c8.3,3.5,15.7,8.3,22,14.6c6.3,6.3,11.2,13.6,14.6,22
		c3.4,8.3,5.2,17,5.2,26.1c0,18.8-6.6,34.9-19.9,48.2c-13.3,13.3-29.3,19.9-48,19.9h-134.8v-57.1h131.6v-21.7h-77.1
		c-18.6-0.3-34.3-7.1-47.4-20.3c-13-13.3-19.5-29.2-19.5-47.7c0-18.5,6.5-34.4,19.5-47.6s28.8-20,47.4-20.3h138.6v57.1h-135.4v21.8
		L3289.6,489.4L3289.6,489.4z"/>
</g>
<g>
	<linearGradient id="SVGID_1_" gradientUnits="userSpaceOnUse" x1="202.9671" y1="506.1058" x2="809.9744" y2="506.1058">
		<stop  offset="0" style="stop-color:#4F46E5"/>
		<stop  offset="1" style="stop-color:#7C3AED"/>
	</linearGradient>
	<path class="st1" d="M753.2,809.6H259.7c-31.3,0-56.8-25.4-56.8-56.8V259.4c0-31.3,25.4-56.8,56.8-56.8h493.5
		c31.3,0,56.8,25.4,56.8,56.8v493.5C810,784.2,784.6,809.6,753.2,809.6z"/>
	<g>
		<g>
			<path class="st2" d="M708.2,587.9l0,94.7h-46.7V587c0-4.7-0.7-9.2-1.9-13.5c-0.1-0.2-0.1-0.5-0.2-0.7c0-0.1-0.1-0.2-0.1-0.4
				c0-0.2-0.1-0.3-0.1-0.5c-0.1-0.5-0.3-0.9-0.5-1.4v0c-0.2-0.5-0.3-0.9-0.5-1.4c-0.1-0.3-0.2-0.6-0.4-0.9c0,0,0,0,0,0
				c-0.7-1.7-1.5-3.3-2.4-4.9c-0.1-0.2-0.2-0.4-0.3-0.6c-0.1-0.2-0.2-0.4-0.3-0.6c-0.1-0.1-0.2-0.3-0.2-0.4c-0.2-0.3-0.4-0.7-0.6-1
				c-1.2-1.9-2.5-3.7-4-5.4c-0.1-0.2-0.3-0.3-0.4-0.5c-0.3-0.3-0.6-0.6-0.9-1c-0.4-0.5-0.9-0.9-1.3-1.4c-8.8-8.8-21-14.3-34.5-14.3
				c-0.3,0-0.6,0-0.9,0h-0.1c-0.2,0-0.3,0-0.5,0c-0.2,0-0.3,0-0.5,0c-0.5,0-0.9,0-1.4,0.1c0,0-0.1,0-0.1,0c-0.1,0-0.3,0-0.4,0
				c-0.3,0-0.6,0.1-1,0.1c-0.2,0-0.3,0-0.5,0.1c-0.3,0-0.6,0.1-1,0.1c-0.5,0.1-0.9,0.1-1.4,0.2c-0.1,0-0.3,0-0.4,0.1
				c-0.1,0-0.2,0-0.3,0.1c-0.1,0-0.2,0-0.3,0c-0.2,0-0.3,0.1-0.5,0.1c-0.2,0-0.3,0.1-0.5,0.1c-0.1,0-0.3,0.1-0.4,0.1c0,0,0,0-0.1,0
				c-0.1,0-0.3,0.1-0.4,0.1c-0.4,0.1-0.8,0.2-1.2,0.3c-0.1,0-0.3,0.1-0.4,0.1c-0.2,0.1-0.5,0.1-0.7,0.2c-0.2,0-0.3,0.1-0.5,0.1
				c-0.1,0-0.3,0.1-0.4,0.1c-0.1,0-0.3,0.1-0.4,0.1c0,0-0.1,0-0.1,0c-0.1,0-0.3,0.1-0.4,0.1c-0.3,0.1-0.6,0.2-0.9,0.3
				c-0.1,0-0.3,0.1-0.4,0.1c0,0,0,0-0.1,0c-0.1,0-0.2,0.1-0.3,0.1c-0.1,0-0.1,0-0.2,0.1c-0.2,0.1-0.4,0.2-0.6,0.2
				c-0.2,0.1-0.4,0.2-0.6,0.2c-0.1,0-0.2,0.1-0.3,0.1c-0.5,0.2-0.9,0.4-1.4,0.6c-0.1,0-0.2,0.1-0.3,0.1c-0.1,0-0.1,0-0.2,0.1
				c-0.1,0.1-0.2,0.1-0.4,0.2c-0.5,0.2-1,0.5-1.5,0.7c-0.1,0.1-0.2,0.1-0.3,0.2c-0.4,0.2-0.7,0.4-1.1,0.6c-0.1,0.1-0.2,0.1-0.3,0.2
				c-0.1,0-0.1,0.1-0.2,0.1c-0.1,0.1-0.2,0.1-0.3,0.2c-0.1,0.1-0.3,0.1-0.4,0.2c-0.3,0.2-0.6,0.3-0.9,0.5c-0.1,0.1-0.2,0.1-0.4,0.2
				c-0.1,0.1-0.3,0.2-0.4,0.2c-0.3,0.2-0.5,0.3-0.8,0.5c-0.1,0.1-0.2,0.2-0.3,0.2c0,0,0,0-0.1,0c-0.1,0.1-0.2,0.2-0.4,0.2
				c-0.3,0.2-0.5,0.3-0.7,0.5c-0.2,0.1-0.4,0.3-0.6,0.4c-0.2,0.1-0.4,0.3-0.6,0.4c-0.2,0.1-0.4,0.3-0.5,0.4c0,0,0,0-0.1,0
				c-0.2,0.1-0.4,0.3-0.5,0.4c-0.4,0.3-0.7,0.6-1.1,0.9c0,0,0,0,0,0c-0.1,0.1-0.3,0.2-0.4,0.4c0,0-0.1,0.1-0.1,0.1
				c-0.1,0.1-0.3,0.2-0.4,0.3c-0.4,0.4-0.9,0.8-1.3,1.2c-0.1,0.1-0.2,0.2-0.3,0.3c-0.1,0.1-0.2,0.2-0.2,0.2
				c-0.1,0.1-0.1,0.1-0.2,0.2c-0.1,0.1-0.2,0.2-0.2,0.2c-0.1,0.1-0.2,0.2-0.3,0.3c-0.3,0.3-0.7,0.7-1,1.1c-0.1,0.1-0.2,0.2-0.3,0.3
				c-0.1,0.1-0.1,0.1-0.2,0.2c-0.1,0.1-0.2,0.2-0.3,0.3c0,0.1-0.1,0.1-0.1,0.2c-0.1,0.1-0.2,0.2-0.2,0.3c-0.1,0.1-0.3,0.3-0.4,0.5
				c-0.2,0.2-0.4,0.5-0.6,0.7c-0.1,0.1-0.2,0.3-0.3,0.4c-0.1,0.1-0.1,0.1-0.2,0.2c-0.1,0.1-0.2,0.2-0.2,0.3
				c-0.1,0.1-0.1,0.1-0.2,0.2c-0.1,0.2-0.2,0.3-0.4,0.5c-0.1,0.2-0.3,0.4-0.4,0.6c-0.1,0.2-0.2,0.3-0.4,0.5
				c-0.1,0.1-0.1,0.2-0.2,0.3c-0.1,0.1-0.2,0.3-0.3,0.4c-0.1,0.1-0.2,0.3-0.3,0.4c0,0.1-0.1,0.1-0.1,0.2c0,0.1-0.1,0.1-0.1,0.2
				c-0.1,0.1-0.2,0.2-0.2,0.4c-0.1,0.2-0.2,0.3-0.3,0.5c-0.1,0.2-0.2,0.3-0.3,0.5c-0.1,0.1-0.2,0.3-0.2,0.4c0,0.1-0.1,0.1-0.1,0.2
				c-0.1,0.1-0.1,0.2-0.2,0.3c0,0.1-0.1,0.1-0.1,0.2c-0.1,0.1-0.1,0.3-0.2,0.4c-0.1,0.2-0.2,0.4-0.3,0.5c-0.1,0.2-0.2,0.3-0.3,0.5
				c-0.1,0.2-0.2,0.4-0.3,0.5c-0.2,0.4-0.3,0.7-0.5,1.1c-0.1,0.2-0.2,0.4-0.2,0.5c-0.1,0.2-0.1,0.3-0.2,0.5c0,0,0,0.1,0,0.1
				c-0.1,0.2-0.1,0.3-0.2,0.5c0,0,0,0,0,0c-0.2,0.4-0.3,0.7-0.4,1.1c0,0,0,0.1,0,0.1c-0.1,0.2-0.1,0.3-0.2,0.5
				c-0.1,0.4-0.3,0.7-0.4,1.1c-0.1,0.2-0.1,0.4-0.2,0.6s-0.1,0.4-0.2,0.6c0,0,0,0,0,0c-0.1,0.2-0.1,0.4-0.2,0.6
				c-0.1,0.2-0.1,0.3-0.1,0.5c0,0,0,0,0,0c-0.1,0.3-0.2,0.6-0.3,0.9c-0.1,0.2-0.1,0.4-0.2,0.6c-0.2,0.8-0.4,1.5-0.5,2.3
				c0,0.1-0.1,0.3-0.1,0.4c0,0,0,0.1,0,0.1c0,0.2-0.1,0.3-0.1,0.5c0,0.2-0.1,0.3-0.1,0.5c-0.1,0.4-0.2,0.9-0.2,1.4
				c-0.1,0.4-0.1,0.8-0.2,1.2c0,0.2-0.1,0.4-0.1,0.6c0,0.3-0.1,0.5-0.1,0.8c0,0.3,0,0.5-0.1,0.8c0,0.1,0,0.3,0,0.4
				c0,0.2,0,0.4,0,0.6c0,0.2,0,0.4,0,0.6c0,0,0,0,0,0c0,0.5,0,0.9-0.1,1.4c0,0.2,0,0.3,0,0.5c0,0.2,0,0.4,0,0.6v95.6h-46.7V458.9
				c0-4.2-0.3-8.2-0.9-12.2c-0.1-0.4-0.1-0.7-0.2-1.1l0-0.3c0-0.3-0.1-0.5-0.1-0.8c0-0.1,0-0.2-0.1-0.3c-0.1-0.3-0.1-0.5-0.2-0.8
				c0-0.1,0-0.2,0-0.3c-0.1-0.7-0.3-1.4-0.5-2.2c0-0.1,0-0.1,0-0.2c-0.1-0.3-0.1-0.6-0.2-0.9c0-0.1,0-0.1,0-0.2
				c-0.1-0.3-0.2-0.7-0.3-1c0,0,0,0,0,0c-0.1-0.4-0.2-0.8-0.3-1.1h0c-9.6-35.2-41.8-61.1-79.9-61.1c-35.5,0-65.9,22.5-77.6,54.1
				c0,0,0,0,0,0c-0.1,0.3-0.2,0.5-0.3,0.8c0,0.1-0.1,0.1-0.1,0.2c-0.1,0.1-0.1,0.3-0.1,0.4c-0.1,0.1-0.1,0.2-0.1,0.3
				c-0.1,0.2-0.1,0.4-0.2,0.6l-0.1,0.2c-0.1,0.2-0.1,0.4-0.2,0.6c0,0.1-0.1,0.2-0.1,0.2c-0.1,0.2-0.1,0.3-0.2,0.5
				c0,0.1-0.1,0.2-0.1,0.3c-0.1,0.2-0.1,0.4-0.2,0.6c0,0.1-0.1,0.2-0.1,0.3c-0.1,0.2-0.1,0.4-0.2,0.6c0,0.1-0.1,0.2-0.1,0.3
				c-0.1,0.2-0.1,0.4-0.2,0.6c0,0.1,0,0.2-0.1,0.3c-0.1,0.2-0.1,0.4-0.2,0.6c0,0.1,0,0.2-0.1,0.2c-0.1,0.2-0.1,0.4-0.2,0.7
				c0,0.1,0,0.1,0,0.2c-0.1,0.6-0.3,1.1-0.4,1.7c-1.4,6-2.1,12.2-2.1,18.7c0,6.1,0.7,12,1.9,17.8H306c-0.8-5.8-1.2-11.8-1.2-17.8
				l0.2-7l0,0c0.2-3.9,0.6-7.8,1.1-11.7c0.1-1,0.3-2,0.5-3c0,0,0,0,0,0c0-0.3,0.1-0.6,0.2-0.9c0-0.1,0-0.1,0-0.2
				c0-0.3,0.1-0.5,0.1-0.8c0-0.1,0-0.2,0-0.2c0-0.2,0.1-0.5,0.1-0.7c0-0.1,0-0.2,0.1-0.3c0-0.2,0.1-0.5,0.1-0.7c0-0.1,0-0.2,0.1-0.3
				c0-0.2,0.1-0.5,0.1-0.7c0-0.1,0-0.2,0.1-0.4c0-0.2,0.1-0.4,0.1-0.6c0-0.1,0.1-0.3,0.1-0.4c0-0.2,0.1-0.4,0.1-0.6
				c0-0.1,0.1-0.3,0.1-0.4c0-0.2,0.1-0.4,0.1-0.6c0-0.1,0.1-0.3,0.1-0.4c0-0.2,0.1-0.4,0.1-0.6c0-0.2,0.1-0.3,0.1-0.5
				c0-0.2,0.1-0.3,0.1-0.5c0-0.2,0.1-0.3,0.1-0.5c0-0.2,0.1-0.3,0.1-0.5c0-0.2,0.1-0.4,0.1-0.6c0-0.1,0.1-0.3,0.1-0.4
				c0.1-0.2,0.1-0.4,0.2-0.6c0-0.1,0.1-0.2,0.1-0.4c0.1-0.2,0.1-0.5,0.2-0.7c0-0.1,0-0.1,0-0.2c1.4-5.1,3.2-10.1,5.3-15
				c3.2-7.7,7.3-15.1,11.9-22c4.6-6.9,9.9-13.3,15.8-19.2c5.9-5.9,12.3-11.2,19.2-15.8c6.9-4.7,14.3-8.7,22-11.9
				c16-6.8,32.9-10.2,50.4-10.2c17.5,0,34.4,3.4,50.4,10.2c7.7,3.2,15.1,7.3,22,11.9c6.9,4.6,13.3,9.9,19.2,15.8
				c5.9,5.9,11.2,12.3,15.8,19.2c2.8,4.2,5.4,8.5,7.7,13c0.4,0.8,0.9,1.7,1.3,2.5c1.1,2.1,2,4.3,3,6.5c1.1,2.6,2.1,5.2,3,7.9
				c0,0,0,0,0,0c0.1,0.2,0.1,0.4,0.2,0.6c0,0.1,0.1,0.3,0.1,0.4c0.1,0.2,0.1,0.4,0.2,0.6c0,0.1,0.1,0.3,0.1,0.4
				c0.1,0.2,0.1,0.4,0.2,0.6c0,0.1,0.1,0.3,0.1,0.4c0.1,0.4,0.2,0.8,0.4,1.2c0,0.1,0.1,0.3,0.1,0.4c0.1,0.2,0.1,0.4,0.2,0.6
				c0,0.1,0.1,0.3,0.1,0.4c0.1,0.2,0.1,0.4,0.2,0.6c0,0.1,0.1,0.3,0.1,0.4c0.1,0.2,0.1,0.4,0.2,0.6c0,0.1,0.1,0.2,0.1,0.4
				c0.1,0.4,0.2,0.8,0.3,1.2c0,0.1,0.1,0.3,0.1,0.4c0.1,0.2,0.1,0.4,0.2,0.6c0,0.2,0.1,0.3,0.1,0.5c0.1,0.2,0.1,0.4,0.2,0.6
				c0,0.2,0.1,0.3,0.1,0.5c0.1,0.4,0.2,0.7,0.3,1.1c0,0.2,0.1,0.3,0.1,0.5c0,0.2,0.1,0.4,0.1,0.6c0,0.2,0.1,0.3,0.1,0.5
				c0,0.2,0.1,0.4,0.1,0.6l0.1,0.5c0,0.2,0.1,0.4,0.1,0.6c0,0.2,0.1,0.3,0.1,0.5c0.1,0.3,0.1,0.6,0.2,1c0,0.2,0.1,0.4,0.1,0.5
				c0,0.2,0.1,0.4,0.1,0.6c0,0.2,0.1,0.3,0.1,0.5c0,0.2,0.1,0.4,0.1,0.6c0,0.2,0.1,0.4,0.1,0.5c0,0.2,0.1,0.4,0.1,0.5
				c0,0.3,0.1,0.5,0.1,0.8c0,0.2,0.1,0.5,0.1,0.7c0,0.2,0.1,0.4,0.1,0.6c0,0.2,0.1,0.4,0.1,0.5c0,0.2,0.1,0.4,0.1,0.6
				c0,0.2,0.1,0.4,0.1,0.5c0,0.2,0.1,0.4,0.1,0.6c0,0.2,0,0.3,0.1,0.5c0,0.3,0.1,0.7,0.1,1c0,0.2,0,0.3,0.1,0.5c0,0.2,0,0.4,0.1,0.6
				c0,0.2,0,0.4,0.1,0.5c0,0.2,0,0.4,0.1,0.6c0,0.2,0,0.3,0.1,0.5c0,0.2,0,0.5,0.1,0.7c0,0.1,0,0.2,0,0.4c0.2,1.9,0.3,3.9,0.4,5.8
				c0.1,1.9,0.2,3.9,0.2,5.9h0v33.3c0,0,0,0,0,0v13.3c3.7-2.2,7.6-4.2,11.6-5.9c10.7-4.5,21.9-7,33.5-7.5c0.2,0,0.4,0,0.6,0
				c0,0,0,0,0.1,0c0.4,0,0.8,0,1.2,0c0,0,0,0,0,0c0.4,0,0.8,0,1.1,0c0.2,0,0.4,0,0.7,0c0.2,0,0.4,0,0.6,0c0.1,0,0.2,0,0.3,0
				c0.1,0,0.3,0,0.4,0h0.3c0.1,0,0.3,0,0.4,0c0,0,0.1,0,0.1,0c0.4,0,0.9,0,1.3,0c0.4,0,0.9,0,1.3,0.1c0,0,0.1,0,0.1,0
				c5.2,0.3,10.4,0.9,15.4,2c0,0,0.1,0,0.1,0c1.3,0.3,2.5,0.6,3.8,0.9c0.2,0,0.4,0.1,0.5,0.1c0.2,0.1,0.4,0.1,0.6,0.2
				c0.2,0,0.3,0.1,0.5,0.1c0.2,0,0.3,0.1,0.5,0.1c0.4,0.1,0.8,0.2,1.2,0.3c0.3,0.1,0.6,0.2,0.9,0.3c0.9,0.3,1.8,0.6,2.7,0.9
				c0.2,0.1,0.3,0.1,0.5,0.2c0.2,0.1,0.3,0.1,0.5,0.2c0.2,0.1,0.3,0.1,0.5,0.2c0.5,0.2,0.9,0.3,1.4,0.5c0.5,0.2,0.9,0.3,1.4,0.5
				c0.2,0.1,0.3,0.1,0.5,0.2c0.3,0.1,0.5,0.2,0.8,0.3c0.3,0.1,0.5,0.2,0.8,0.3c0,0,0,0,0,0c0,0,0,0,0,0c0.3,0.1,0.7,0.3,1,0.4
				c1.1,0.5,2.3,1,3.4,1.6c0.4,0.2,0.9,0.4,1.3,0.7c0.2,0.1,0.4,0.2,0.7,0.3c1.8,0.9,3.5,1.9,5.2,2.9c0.2,0.1,0.4,0.3,0.6,0.4
				c5.5,3.3,10.7,7.2,15.4,11.6c0.2,0.2,0.5,0.4,0.7,0.6c0.2,0.2,0.3,0.3,0.5,0.5c0.3,0.3,0.7,0.7,1,1c0.2,0.2,0.3,0.3,0.5,0.5
				c0.4,0.4,0.7,0.7,1,1.1c0,0,0,0,0,0c0.9,0.9,1.7,1.8,2.5,2.7v0c0.3,0.4,0.7,0.7,1,1.1c0.2,0.2,0.3,0.4,0.5,0.6
				c0.3,0.4,0.6,0.8,1,1.1c0.6,0.8,1.2,1.5,1.9,2.3c0.3,0.4,0.6,0.8,0.9,1.2c0.1,0.2,0.2,0.3,0.4,0.5c0.3,0.5,0.7,0.9,1,1.4v0
				c0.1,0.2,0.2,0.3,0.3,0.5c0.2,0.3,0.4,0.6,0.7,1c0.2,0.3,0.4,0.6,0.7,1c1.2,1.8,2.3,3.6,3.4,5.5v0c0.3,0.4,0.5,0.9,0.8,1.4v0
				c0.6,1.1,1.2,2.3,1.8,3.5c0.2,0.5,0.5,0.9,0.7,1.4c0.2,0.5,0.5,0.9,0.7,1.4c0.1,0.2,0.2,0.5,0.3,0.7c0.2,0.4,0.3,0.7,0.5,1.1
				c0.2,0.4,0.3,0.7,0.5,1.1c0.1,0.1,0.1,0.3,0.2,0.4c0.1,0.3,0.2,0.6,0.4,0.9c0.1,0.1,0.1,0.3,0.2,0.4c0.1,0.3,0.2,0.6,0.4,0.9
				c0.1,0.3,0.2,0.6,0.3,0.9c0.1,0.4,0.3,0.8,0.4,1.2c0.1,0.2,0.1,0.3,0.2,0.5c0.1,0.3,0.2,0.6,0.3,1c0.1,0.3,0.2,0.6,0.3,1
				s0.2,0.6,0.3,1c0,0.2,0.1,0.3,0.2,0.5c0.1,0.3,0.2,0.7,0.3,1c2.2,7.2,3.5,14.6,3.9,22.1c0,0,0,0.1,0,0.1c0,0.2,0,0.5,0,0.7
				c0,0.1,0,0.2,0,0.3c0,0.1,0,0.2,0,0.3c0,0.1,0,0.2,0,0.3c0,0.1,0,0.2,0,0.3c0,0.3,0,0.6,0,0.9c0,0.1,0,0.2,0,0.3
				c0,0.2,0,0.3,0,0.5c0,0.2,0,0.5,0,0.7c0,0.3,0,0.6,0,0.8C708.2,587.3,708.2,587.6,708.2,587.9z"/>
		</g>
		<g>
			<g>
				<defs>
					<filter id="Adobe_OpacityMaskFilter" filterUnits="userSpaceOnUse" x="308.9" y="491.8" width="186" height="46.7">
						<feFlood  style="flood-color:white;flood-opacity:1" result="back"/>
						<feBlend  in="SourceGraphic" in2="back" mode="normal"/>
					</filter>
				</defs>
				<mask maskUnits="userSpaceOnUse" x="308.9" y="491.8" width="186" height="46.7" id="SVGID_2_">
					<g class="st3">
						<defs>
							<filter id="Adobe_OpacityMaskFilter_1_" filterUnits="userSpaceOnUse" x="308.9" y="491.8" width="186" height="46.7">
								<feFlood  style="flood-color:white;flood-opacity:1" result="back"/>
								<feBlend  in="SourceGraphic" in2="back" mode="normal"/>
							</filter>
						</defs>
						<mask maskUnits="userSpaceOnUse" x="308.9" y="491.8" width="186" height="46.7" id="SVGID_2_">
							<g class="st4">
							</g>
						</mask>
						
							<linearGradient id="SVGID_3_" gradientUnits="userSpaceOnUse" x1="2216.886" y1="549.1201" x2="2217.739" y2="520.3386" gradientTransform="matrix(1 0 0 1 -1816.71 0)">
							<stop  offset="0" style="stop-color:#E6E6E6"/>
							<stop  offset="1" style="stop-color:#E6E6E6"/>
						</linearGradient>
						<path class="st5" d="M494.9,491.8c-0.1,0.3-0.1,0.5-0.2,0.8c0,0.1,0,0.2-0.1,0.2c-0.3,1.1-0.6,2.2-0.9,3.3
							c0,0.1-0.1,0.3-0.1,0.4c-0.1,0.4-0.2,0.8-0.4,1.2c-0.1,0.2-0.1,0.4-0.2,0.5c-0.1,0.4-0.2,0.7-0.3,1.1
							c-0.1,0.2-0.1,0.4-0.2,0.6c-0.1,0.3-0.2,0.7-0.3,1c-0.1,0.2-0.1,0.4-0.2,0.6c-0.1,0.3-0.2,0.7-0.3,1c-0.1,0.2-0.2,0.4-0.2,0.7
							c-0.1,0.3-0.2,0.6-0.4,1c-0.1,0.2-0.2,0.4-0.2,0.7c-0.1,0.3-0.2,0.6-0.4,1c-0.1,0.2-0.2,0.4-0.2,0.6c-0.1,0.3-0.3,0.7-0.4,1
							c-0.1,0.2-0.2,0.4-0.2,0.6c-0.2,0.5-0.4,0.9-0.6,1.4c0,0.1-0.1,0.2-0.1,0.2c0,0,0,0.1,0,0.1c-0.2,0.4-0.3,0.8-0.5,1.2
							c-0.1,0.1-0.1,0.3-0.2,0.4c-0.1,0.3-0.3,0.7-0.4,1c0,0.1-0.1,0.2-0.1,0.3c-0.2,0.4-0.4,0.8-0.6,1.2c0,0.1-0.1,0.2-0.1,0.3
							c-0.1,0.3-0.3,0.6-0.5,1c-0.1,0.1-0.1,0.3-0.2,0.4c-0.2,0.4-0.4,0.8-0.6,1.2c0,0.1-0.1,0.2-0.1,0.3c-0.1,0.3-0.3,0.5-0.4,0.8
							l-0.1,0.2c-0.1,0.3-0.3,0.5-0.4,0.8c-0.1,0.2-0.2,0.4-0.3,0.6c-0.1,0.2-0.3,0.5-0.4,0.7c-0.1,0.2-0.2,0.4-0.4,0.7
							c-0.1,0.2-0.2,0.5-0.4,0.7c-0.1,0.2-0.3,0.5-0.4,0.7c-0.1,0.2-0.2,0.4-0.4,0.7c-0.1,0.2-0.3,0.5-0.4,0.7
							c-0.1,0.2-0.3,0.5-0.4,0.7c-0.1,0.2-0.3,0.4-0.4,0.7c-0.1,0.2-0.3,0.5-0.4,0.7c-0.1,0.2-0.3,0.4-0.4,0.6
							c-0.1,0.2-0.3,0.5-0.4,0.7c-0.1,0.2-0.3,0.4-0.4,0.6c-0.1,0.2-0.3,0.5-0.5,0.7c-0.1,0.1-0.2,0.3-0.3,0.4c0,0,0,0,0,0
							c-0.6,1-1.3,2-2,3c-1.6,2.3-3.2,4.6-4.9,6.8h-64.8l0,0h-98.4v-46.7H494.9z"/>
					</g>
				</mask>
				<path class="st2" d="M494.9,491.8c-0.1,0.3-0.1,0.5-0.2,0.8c0,0.1,0,0.2-0.1,0.2c-0.3,1.1-0.6,2.2-0.9,3.3
					c0,0.1-0.1,0.3-0.1,0.4c-0.1,0.4-0.2,0.8-0.4,1.2c-0.1,0.2-0.1,0.4-0.2,0.5c-0.1,0.4-0.2,0.7-0.3,1.1c-0.1,0.2-0.1,0.4-0.2,0.6
					c-0.1,0.3-0.2,0.7-0.3,1c-0.1,0.2-0.1,0.4-0.2,0.6c-0.1,0.3-0.2,0.7-0.3,1c-0.1,0.2-0.2,0.4-0.2,0.7c-0.1,0.3-0.2,0.6-0.4,1
					c-0.1,0.2-0.2,0.4-0.2,0.7c-0.1,0.3-0.2,0.6-0.4,1c-0.1,0.2-0.2,0.4-0.2,0.6c-0.1,0.3-0.3,0.7-0.4,1c-0.1,0.2-0.2,0.4-0.2,0.6
					c-0.2,0.5-0.4,0.9-0.6,1.4c0,0.1-0.1,0.2-0.1,0.2c0,0,0,0.1,0,0.1c-0.2,0.4-0.3,0.8-0.5,1.2c-0.1,0.1-0.1,0.3-0.2,0.4
					c-0.1,0.3-0.3,0.7-0.4,1c0,0.1-0.1,0.2-0.1,0.3c-0.2,0.4-0.4,0.8-0.6,1.2c0,0.1-0.1,0.2-0.1,0.3c-0.1,0.3-0.3,0.6-0.5,1
					c-0.1,0.1-0.1,0.3-0.2,0.4c-0.2,0.4-0.4,0.8-0.6,1.2c0,0.1-0.1,0.2-0.1,0.3c-0.1,0.3-0.3,0.5-0.4,0.8l-0.1,0.2
					c-0.1,0.3-0.3,0.5-0.4,0.8c-0.1,0.2-0.2,0.4-0.3,0.6c-0.1,0.2-0.3,0.5-0.4,0.7c-0.1,0.2-0.2,0.4-0.4,0.7
					c-0.1,0.2-0.2,0.5-0.4,0.7c-0.1,0.2-0.3,0.5-0.4,0.7c-0.1,0.2-0.2,0.4-0.4,0.7c-0.1,0.2-0.3,0.5-0.4,0.7
					c-0.1,0.2-0.3,0.5-0.4,0.7c-0.1,0.2-0.3,0.4-0.4,0.7c-0.1,0.2-0.3,0.5-0.4,0.7c-0.1,0.2-0.3,0.4-0.4,0.6
					c-0.1,0.2-0.3,0.5-0.4,0.7c-0.1,0.2-0.3,0.4-0.4,0.6c-0.1,0.2-0.3,0.5-0.5,0.7c-0.1,0.1-0.2,0.3-0.3,0.4c0,0,0,0,0,0
					c-0.6,1-1.3,2-2,3c-1.6,2.3-3.2,4.6-4.9,6.8h-64.8l0,0h-40.8c-27.7,0-51.7-19.4-57.6-46.7l0,0H494.9z"/>
				<defs>
					<filter id="Adobe_OpacityMaskFilter_2_" filterUnits="userSpaceOnUse" x="308.9" y="559.6" width="190.1" height="123">
						<feFlood  style="flood-color:white;flood-opacity:1" result="back"/>
						<feBlend  in="SourceGraphic" in2="back" mode="normal"/>
					</filter>
				</defs>
				<mask maskUnits="userSpaceOnUse" x="308.9" y="559.6" width="190.1" height="123" id="SVGID_4_">
					<g class="st6">
						<defs>
							<filter id="Adobe_OpacityMaskFilter_3_" filterUnits="userSpaceOnUse" x="308.9" y="559.6" width="190.1" height="123">
								<feFlood  style="flood-color:white;flood-opacity:1" result="back"/>
								<feBlend  in="SourceGraphic" in2="back" mode="normal"/>
							</filter>
						</defs>
						<mask maskUnits="userSpaceOnUse" x="308.9" y="559.6" width="190.1" height="123" id="SVGID_4_">
							<g class="st7">
							</g>
						</mask>
						
							<linearGradient id="SVGID_5_" gradientUnits="userSpaceOnUse" x1="2219.281" y1="704.8082" x2="2221.3611" y2="634.6136" gradientTransform="matrix(1 0 0 1 -1816.71 0)">
							<stop  offset="0" style="stop-color:#E6E6E6"/>
							<stop  offset="1" style="stop-color:#E6E6E6"/>
						</linearGradient>
						<polygon class="st8" points="375.9,635.9 499,635.9 499,682.6 308.9,682.6 308.9,635.9 310.1,635.9 386.2,559.6 451.9,559.6 
													"/>
					</g>
				</mask>
				<polygon class="st2" points="375.9,635.9 499,635.9 499,682.6 308.9,682.6 308.9,637.2 310.1,635.9 386.2,559.6 451.9,559.6 
									"/>
			</g>
		</g>
	</g>
</g>
</svg>
