<?xml version="1.0" encoding="utf-8"?>
<!-- Generator: Adobe Illustrator 25.2.0, SVG Export Plug-In . SVG Version: 6.00 Build 0) -->
<svg version="1.1" id="Layer_1" xmlns="http://www.w3.org/2000/svg" xmlns:xlink="http://www.w3.org/1999/xlink" x="0px" y="0px" viewBox="0 0 775.2 767.3" style="enable-background:new 0 0 775.2 767.3;" xml:space="preserve">
	<style type="text/css">
		.st0{fill:url(#SVGID_1_);}
		.st1{fill:#FFFFFF;}
		.st2{filter:url(#Adobe_OpacityMaskFilter);}
		.st3{filter:url(#Adobe_OpacityMaskFilter_1_);}
		.st4{mask:url(#SVGID_2_);fill:url(#SVGID_3_);}
		.st5{filter:url(#Adobe_OpacityMaskFilter_2_);}
		.st6{filter:url(#Adobe_OpacityMaskFilter_3_);}
		.st7{mask:url(#SVGID_4_);fill:url(#SVGID_5_);}
	</style>
	<g>
		<linearGradient id="SVGID_1_" gradientUnits="userSpaceOnUse" x1="91.3538" y1="393.5947" x2="698.3611" y2="393.5947">
			<stop offset="0" style="stop-color:#4F46E5" />
			<stop offset="1" style="stop-color:#7C3AED" />
		</linearGradient>
		<path class="st0" d="M641.6,697.1H148.1c-31.3,0-56.8-25.4-56.8-56.8V146.9c0-31.3,25.4-56.8,56.8-56.8h493.5
		c31.3,0,56.8,25.4,56.8,56.8v493.5C698.4,671.7,672.9,697.1,641.6,697.1z" />
		<g>
			<g>
				<path class="st1" d="M596.6,475.4l0,94.7h-46.7v-95.6c0-4.7-0.7-9.2-1.9-13.5c-0.1-0.2-0.1-0.5-0.2-0.7c0-0.1-0.1-0.2-0.1-0.4
				c0-0.2-0.1-0.3-0.1-0.5c-0.1-0.5-0.3-0.9-0.5-1.4v0c-0.2-0.5-0.3-0.9-0.5-1.4c-0.1-0.3-0.2-0.6-0.4-0.9c0,0,0,0,0,0
				c-0.7-1.7-1.5-3.3-2.4-4.9c-0.1-0.2-0.2-0.4-0.3-0.6c-0.1-0.2-0.2-0.4-0.3-0.6c-0.1-0.1-0.2-0.3-0.2-0.4c-0.2-0.3-0.4-0.7-0.6-1
				c-1.2-1.9-2.5-3.7-4-5.4c-0.1-0.2-0.3-0.3-0.4-0.5c-0.3-0.3-0.6-0.6-0.9-1c-0.4-0.5-0.9-0.9-1.3-1.4c-8.8-8.8-21-14.3-34.5-14.3
				c-0.3,0-0.6,0-0.9,0H500c-0.2,0-0.3,0-0.5,0c-0.2,0-0.3,0-0.5,0c-0.5,0-0.9,0-1.4,0.1c0,0-0.1,0-0.1,0c-0.1,0-0.3,0-0.4,0
				c-0.3,0-0.6,0.1-1,0.1c-0.2,0-0.3,0-0.5,0.1c-0.3,0-0.6,0.1-1,0.1c-0.5,0.1-0.9,0.1-1.4,0.2c-0.1,0-0.3,0-0.4,0.1
				c-0.1,0-0.2,0-0.3,0.1c-0.1,0-0.2,0-0.3,0c-0.2,0-0.3,0.1-0.5,0.1c-0.2,0-0.3,0.1-0.5,0.1c-0.1,0-0.3,0.1-0.4,0.1c0,0,0,0-0.1,0
				c-0.1,0-0.3,0.1-0.4,0.1c-0.4,0.1-0.8,0.2-1.2,0.3c-0.1,0-0.3,0.1-0.4,0.1c-0.2,0.1-0.5,0.1-0.7,0.2c-0.2,0-0.3,0.1-0.5,0.1
				c-0.1,0-0.3,0.1-0.4,0.1c-0.1,0-0.3,0.1-0.4,0.1c0,0-0.1,0-0.1,0c-0.1,0-0.3,0.1-0.4,0.1c-0.3,0.1-0.6,0.2-0.9,0.3
				c-0.1,0-0.3,0.1-0.4,0.1c0,0,0,0-0.1,0c-0.1,0-0.2,0.1-0.3,0.1c-0.1,0-0.1,0-0.2,0.1c-0.2,0.1-0.4,0.2-0.6,0.2
				c-0.2,0.1-0.4,0.2-0.6,0.2c-0.1,0-0.2,0.1-0.3,0.1c-0.5,0.2-0.9,0.4-1.4,0.6c-0.1,0-0.2,0.1-0.3,0.1c-0.1,0-0.1,0-0.2,0.1
				c-0.1,0.1-0.2,0.1-0.4,0.2c-0.5,0.2-1,0.5-1.5,0.7c-0.1,0.1-0.2,0.1-0.3,0.2c-0.4,0.2-0.7,0.4-1.1,0.6c-0.1,0.1-0.2,0.1-0.3,0.2
				c-0.1,0-0.1,0.1-0.2,0.1c-0.1,0.1-0.2,0.1-0.3,0.2c-0.1,0.1-0.3,0.1-0.4,0.2c-0.3,0.2-0.6,0.3-0.9,0.5c-0.1,0.1-0.2,0.1-0.4,0.2
				c-0.1,0.1-0.3,0.2-0.4,0.2c-0.3,0.2-0.5,0.3-0.8,0.5c-0.1,0.1-0.2,0.2-0.3,0.2c0,0,0,0-0.1,0c-0.1,0.1-0.2,0.2-0.4,0.2
				c-0.3,0.2-0.5,0.3-0.7,0.5c-0.2,0.1-0.4,0.3-0.6,0.4c-0.2,0.1-0.4,0.3-0.6,0.4c-0.2,0.1-0.4,0.3-0.5,0.4c0,0,0,0-0.1,0
				c-0.2,0.1-0.4,0.3-0.5,0.4c-0.4,0.3-0.7,0.6-1.1,0.9c0,0,0,0,0,0c-0.1,0.1-0.3,0.2-0.4,0.4c0,0-0.1,0.1-0.1,0.1
				c-0.1,0.1-0.3,0.2-0.4,0.3c-0.4,0.4-0.9,0.8-1.3,1.2c-0.1,0.1-0.2,0.2-0.3,0.3c-0.1,0.1-0.2,0.2-0.2,0.2
				c-0.1,0.1-0.1,0.1-0.2,0.2c-0.1,0.1-0.2,0.2-0.2,0.2c-0.1,0.1-0.2,0.2-0.3,0.3c-0.3,0.3-0.7,0.7-1,1.1c-0.1,0.1-0.2,0.2-0.3,0.3
				c-0.1,0.1-0.1,0.1-0.2,0.2c-0.1,0.1-0.2,0.2-0.3,0.3c0,0.1-0.1,0.1-0.1,0.2c-0.1,0.1-0.2,0.2-0.2,0.3c-0.1,0.1-0.3,0.3-0.4,0.5
				c-0.2,0.2-0.4,0.5-0.6,0.7c-0.1,0.1-0.2,0.3-0.3,0.4c-0.1,0.1-0.1,0.1-0.2,0.2c-0.1,0.1-0.2,0.2-0.2,0.3
				c-0.1,0.1-0.1,0.1-0.2,0.2c-0.1,0.2-0.2,0.3-0.4,0.5c-0.1,0.2-0.3,0.4-0.4,0.6c-0.1,0.2-0.2,0.3-0.4,0.5
				c-0.1,0.1-0.1,0.2-0.2,0.3c-0.1,0.1-0.2,0.3-0.3,0.4c-0.1,0.1-0.2,0.3-0.3,0.4c0,0.1-0.1,0.1-0.1,0.2c0,0.1-0.1,0.1-0.1,0.2
				c-0.1,0.1-0.2,0.2-0.2,0.4c-0.1,0.2-0.2,0.3-0.3,0.5c-0.1,0.2-0.2,0.3-0.3,0.5c-0.1,0.1-0.2,0.3-0.2,0.4c0,0.1-0.1,0.1-0.1,0.2
				c-0.1,0.1-0.1,0.2-0.2,0.3c0,0.1-0.1,0.1-0.1,0.2c-0.1,0.1-0.1,0.3-0.2,0.4c-0.1,0.2-0.2,0.4-0.3,0.5c-0.1,0.2-0.2,0.3-0.3,0.5
				c-0.1,0.2-0.2,0.4-0.3,0.5c-0.2,0.4-0.3,0.7-0.5,1.1c-0.1,0.2-0.2,0.4-0.2,0.5c-0.1,0.2-0.1,0.3-0.2,0.5c0,0,0,0.1,0,0.1
				c-0.1,0.2-0.1,0.3-0.2,0.5c0,0,0,0,0,0c-0.2,0.4-0.3,0.7-0.4,1.1c0,0,0,0.1,0,0.1c-0.1,0.2-0.1,0.3-0.2,0.5
				c-0.1,0.4-0.3,0.7-0.4,1.1c-0.1,0.2-0.1,0.4-0.2,0.6s-0.1,0.4-0.2,0.6c0,0,0,0,0,0c-0.1,0.2-0.1,0.4-0.2,0.6
				c-0.1,0.2-0.1,0.3-0.1,0.5c0,0,0,0,0,0c-0.1,0.3-0.2,0.6-0.3,0.9c-0.1,0.2-0.1,0.4-0.2,0.6c-0.2,0.8-0.4,1.5-0.5,2.3
				c0,0.1-0.1,0.3-0.1,0.4c0,0,0,0.1,0,0.1c0,0.2-0.1,0.3-0.1,0.5c0,0.2-0.1,0.3-0.1,0.5c-0.1,0.4-0.2,0.9-0.2,1.4
				c-0.1,0.4-0.1,0.8-0.2,1.2c0,0.2-0.1,0.4-0.1,0.6c0,0.3-0.1,0.5-0.1,0.8c0,0.3,0,0.5-0.1,0.8c0,0.1,0,0.3,0,0.4
				c0,0.2,0,0.4,0,0.6c0,0.2,0,0.4,0,0.6c0,0,0,0,0,0c0,0.5,0,0.9-0.1,1.4c0,0.2,0,0.3,0,0.5c0,0.2,0,0.4,0,0.6v95.6h-46.7V346.4
				c0-4.2-0.3-8.2-0.9-12.2c-0.1-0.4-0.1-0.7-0.2-1.1l0-0.3c0-0.3-0.1-0.5-0.1-0.8c0-0.1,0-0.2-0.1-0.3c-0.1-0.3-0.1-0.5-0.2-0.8
				c0-0.1,0-0.2,0-0.3c-0.1-0.7-0.3-1.4-0.5-2.2c0-0.1,0-0.1,0-0.2c-0.1-0.3-0.1-0.6-0.2-0.9c0-0.1,0-0.1,0-0.2
				c-0.1-0.3-0.2-0.7-0.3-1c0,0,0,0,0,0c-0.1-0.4-0.2-0.8-0.3-1.1h0c-9.6-35.2-41.8-61.1-79.9-61.1c-35.5,0-65.9,22.5-77.6,54.1
				c0,0,0,0,0,0c-0.1,0.3-0.2,0.5-0.3,0.8c0,0.1-0.1,0.1-0.1,0.2c-0.1,0.1-0.1,0.3-0.1,0.4c-0.1,0.1-0.1,0.2-0.1,0.3
				c-0.1,0.2-0.1,0.4-0.2,0.6l-0.1,0.2c-0.1,0.2-0.1,0.4-0.2,0.6c0,0.1-0.1,0.2-0.1,0.2c-0.1,0.2-0.1,0.3-0.2,0.5
				c0,0.1-0.1,0.2-0.1,0.3c-0.1,0.2-0.1,0.4-0.2,0.6c0,0.1-0.1,0.2-0.1,0.3c-0.1,0.2-0.1,0.4-0.2,0.6c0,0.1-0.1,0.2-0.1,0.3
				c-0.1,0.2-0.1,0.4-0.2,0.6c0,0.1,0,0.2-0.1,0.3c-0.1,0.2-0.1,0.4-0.2,0.6c0,0.1,0,0.2-0.1,0.2c-0.1,0.2-0.1,0.4-0.2,0.7
				c0,0.1,0,0.1,0,0.2c-0.1,0.6-0.3,1.1-0.4,1.7c-1.4,6-2.1,12.2-2.1,18.7c0,6.1,0.7,12,1.9,17.8h-47.5c-0.8-5.8-1.2-11.8-1.2-17.8
				l0.2-7l0,0c0.2-3.9,0.6-7.8,1.1-11.7c0.1-1,0.3-2,0.5-3c0,0,0,0,0,0c0-0.3,0.1-0.6,0.2-0.9c0-0.1,0-0.1,0-0.2
				c0-0.3,0.1-0.5,0.1-0.8c0-0.1,0-0.2,0-0.2c0-0.2,0.1-0.5,0.1-0.7c0-0.1,0-0.2,0.1-0.3c0-0.2,0.1-0.5,0.1-0.7c0-0.1,0-0.2,0.1-0.3
				c0-0.2,0.1-0.5,0.1-0.7c0-0.1,0-0.2,0.1-0.4c0-0.2,0.1-0.4,0.1-0.6c0-0.1,0.1-0.3,0.1-0.4c0-0.2,0.1-0.4,0.1-0.6
				c0-0.1,0.1-0.3,0.1-0.4c0-0.2,0.1-0.4,0.1-0.6c0-0.1,0.1-0.3,0.1-0.4c0-0.2,0.1-0.4,0.1-0.6c0-0.2,0.1-0.3,0.1-0.5
				c0-0.2,0.1-0.3,0.1-0.5c0-0.2,0.1-0.3,0.1-0.5c0-0.2,0.1-0.3,0.1-0.5c0-0.2,0.1-0.4,0.1-0.6c0-0.1,0.1-0.3,0.1-0.4
				c0.1-0.2,0.1-0.4,0.2-0.6c0-0.1,0.1-0.2,0.1-0.4c0.1-0.2,0.1-0.5,0.2-0.7c0-0.1,0-0.1,0-0.2c1.4-5.1,3.2-10.1,5.3-15
				c3.2-7.7,7.3-15.1,11.9-22c4.6-6.9,9.9-13.3,15.8-19.2c5.9-5.9,12.3-11.2,19.2-15.8c6.9-4.7,14.3-8.7,22-11.9
				c16-6.8,32.9-10.2,50.4-10.2c17.5,0,34.4,3.4,50.4,10.2c7.7,3.2,15.1,7.3,22,11.9c6.9,4.6,13.3,9.9,19.2,15.8
				c5.9,5.9,11.2,12.3,15.8,19.2c2.8,4.2,5.4,8.5,7.7,13c0.4,0.8,0.9,1.7,1.3,2.5c1.1,2.1,2,4.3,3,6.5c1.1,2.6,2.1,5.2,3,7.9
				c0,0,0,0,0,0c0.1,0.2,0.1,0.4,0.2,0.6c0,0.1,0.1,0.3,0.1,0.4c0.1,0.2,0.1,0.4,0.2,0.6c0,0.1,0.1,0.3,0.1,0.4
				c0.1,0.2,0.1,0.4,0.2,0.6c0,0.1,0.1,0.3,0.1,0.4c0.1,0.4,0.2,0.8,0.4,1.2c0,0.1,0.1,0.3,0.1,0.4c0.1,0.2,0.1,0.4,0.2,0.6
				c0,0.1,0.1,0.3,0.1,0.4c0.1,0.2,0.1,0.4,0.2,0.6c0,0.1,0.1,0.3,0.1,0.4c0.1,0.2,0.1,0.4,0.2,0.6c0,0.1,0.1,0.2,0.1,0.4
				c0.1,0.4,0.2,0.8,0.3,1.2c0,0.1,0.1,0.3,0.1,0.4c0.1,0.2,0.1,0.4,0.2,0.6c0,0.2,0.1,0.3,0.1,0.5c0.1,0.2,0.1,0.4,0.2,0.6
				c0,0.2,0.1,0.3,0.1,0.5c0.1,0.4,0.2,0.7,0.3,1.1c0,0.2,0.1,0.3,0.1,0.5c0,0.2,0.1,0.4,0.1,0.6c0,0.2,0.1,0.3,0.1,0.5
				c0,0.2,0.1,0.4,0.1,0.6l0.1,0.5c0,0.2,0.1,0.4,0.1,0.6c0,0.2,0.1,0.3,0.1,0.5c0.1,0.3,0.1,0.6,0.2,1c0,0.2,0.1,0.4,0.1,0.5
				c0,0.2,0.1,0.4,0.1,0.6c0,0.2,0.1,0.3,0.1,0.5c0,0.2,0.1,0.4,0.1,0.6c0,0.2,0.1,0.4,0.1,0.5c0,0.2,0.1,0.4,0.1,0.5
				c0,0.3,0.1,0.5,0.1,0.8c0,0.2,0.1,0.5,0.1,0.7c0,0.2,0.1,0.4,0.1,0.6c0,0.2,0.1,0.4,0.1,0.5c0,0.2,0.1,0.4,0.1,0.6
				c0,0.2,0.1,0.4,0.1,0.5c0,0.2,0.1,0.4,0.1,0.6c0,0.2,0,0.3,0.1,0.5c0,0.3,0.1,0.7,0.1,1c0,0.2,0,0.3,0.1,0.5c0,0.2,0,0.4,0.1,0.6
				c0,0.2,0,0.4,0.1,0.5c0,0.2,0,0.4,0.1,0.6c0,0.2,0,0.3,0.1,0.5c0,0.2,0,0.5,0.1,0.7c0,0.1,0,0.2,0,0.4c0.2,1.9,0.3,3.9,0.4,5.8
				c0.1,1.9,0.2,3.9,0.2,5.9h0v33.3c0,0,0,0,0,0v13.3c3.7-2.2,7.6-4.2,11.6-5.9c10.7-4.5,21.9-7,33.5-7.5c0.2,0,0.4,0,0.6,0
				c0,0,0,0,0.1,0c0.4,0,0.8,0,1.2,0c0,0,0,0,0,0c0.4,0,0.8,0,1.1,0c0.2,0,0.4,0,0.7,0c0.2,0,0.4,0,0.6,0c0.1,0,0.2,0,0.3,0
				c0.1,0,0.3,0,0.4,0h0.3c0.1,0,0.3,0,0.4,0c0,0,0.1,0,0.1,0c0.4,0,0.9,0,1.3,0c0.4,0,0.9,0,1.3,0.1c0,0,0.1,0,0.1,0
				c5.2,0.3,10.4,0.9,15.4,2c0,0,0.1,0,0.1,0c1.3,0.3,2.5,0.6,3.8,0.9c0.2,0,0.4,0.1,0.5,0.1c0.2,0.1,0.4,0.1,0.6,0.2
				c0.2,0,0.3,0.1,0.5,0.1c0.2,0,0.3,0.1,0.5,0.1c0.4,0.1,0.8,0.2,1.2,0.3c0.3,0.1,0.6,0.2,0.9,0.3c0.9,0.3,1.8,0.6,2.7,0.9
				c0.2,0.1,0.3,0.1,0.5,0.2c0.2,0.1,0.3,0.1,0.5,0.2c0.2,0.1,0.3,0.1,0.5,0.2c0.5,0.2,0.9,0.3,1.4,0.5c0.5,0.2,0.9,0.3,1.4,0.5
				c0.2,0.1,0.3,0.1,0.5,0.2c0.3,0.1,0.5,0.2,0.8,0.3c0.3,0.1,0.5,0.2,0.8,0.3c0,0,0,0,0,0c0,0,0,0,0,0c0.3,0.1,0.7,0.3,1,0.4
				c1.1,0.5,2.3,1,3.4,1.6c0.4,0.2,0.9,0.4,1.3,0.7c0.2,0.1,0.4,0.2,0.7,0.3c1.8,0.9,3.5,1.9,5.2,2.9c0.2,0.1,0.4,0.3,0.6,0.4
				c5.5,3.3,10.7,7.2,15.4,11.6c0.2,0.2,0.5,0.4,0.7,0.6c0.2,0.2,0.3,0.3,0.5,0.5c0.3,0.3,0.7,0.7,1,1c0.2,0.2,0.3,0.3,0.5,0.5
				c0.4,0.4,0.7,0.7,1,1.1c0,0,0,0,0,0c0.9,0.9,1.7,1.8,2.5,2.7v0c0.3,0.4,0.7,0.7,1,1.1c0.2,0.2,0.3,0.4,0.5,0.6
				c0.3,0.4,0.6,0.8,1,1.1c0.6,0.8,1.2,1.5,1.9,2.3c0.3,0.4,0.6,0.8,0.9,1.2c0.1,0.2,0.2,0.3,0.4,0.5c0.3,0.5,0.7,0.9,1,1.4v0
				c0.1,0.2,0.2,0.3,0.3,0.5c0.2,0.3,0.4,0.6,0.7,1c0.2,0.3,0.4,0.6,0.7,1c1.2,1.8,2.3,3.6,3.4,5.5v0c0.3,0.4,0.5,0.9,0.8,1.4v0
				c0.6,1.1,1.2,2.3,1.8,3.5c0.2,0.5,0.5,0.9,0.7,1.4c0.2,0.5,0.5,0.9,0.7,1.4c0.1,0.2,0.2,0.5,0.3,0.7c0.2,0.4,0.3,0.7,0.5,1.1
				c0.2,0.4,0.3,0.7,0.5,1.1c0.1,0.1,0.1,0.3,0.2,0.4c0.1,0.3,0.2,0.6,0.4,0.9c0.1,0.1,0.1,0.3,0.2,0.4c0.1,0.3,0.2,0.6,0.4,0.9
				c0.1,0.3,0.2,0.6,0.3,0.9c0.1,0.4,0.3,0.8,0.4,1.2c0.1,0.2,0.1,0.3,0.2,0.5c0.1,0.3,0.2,0.6,0.3,1c0.1,0.3,0.2,0.6,0.3,1
				c0.1,0.3,0.2,0.6,0.3,1c0,0.2,0.1,0.3,0.2,0.5c0.1,0.3,0.2,0.7,0.3,1c2.2,7.2,3.5,14.6,3.9,22.1c0,0,0,0.1,0,0.1
				c0,0.2,0,0.5,0,0.7c0,0.1,0,0.2,0,0.3c0,0.1,0,0.2,0,0.3c0,0.1,0,0.2,0,0.3c0,0.1,0,0.2,0,0.3c0,0.3,0,0.6,0,0.9
				c0,0.1,0,0.2,0,0.3c0,0.2,0,0.3,0,0.5c0,0.2,0,0.5,0,0.7c0,0.3,0,0.6,0,0.8C596.6,474.8,596.6,475.1,596.6,475.4z" />
			</g>
			<g>
				<g>
					<defs>
						<filter id="Adobe_OpacityMaskFilter" filterUnits="userSpaceOnUse" x="197.3" y="379.3" width="186" height="46.7">
							<feFlood style="flood-color:white;flood-opacity:1" result="back" />
							<feBlend in="SourceGraphic" in2="back" mode="normal" />
						</filter>
					</defs>
					<mask maskUnits="userSpaceOnUse" x="197.3" y="379.3" width="186" height="46.7" id="SVGID_2_">
						<g class="st2">
							<defs>
								<filter id="Adobe_OpacityMaskFilter_1_" filterUnits="userSpaceOnUse" x="197.3" y="379.3" width="186" height="46.7">
									<feFlood style="flood-color:white;flood-opacity:1" result="back" />
									<feBlend in="SourceGraphic" in2="back" mode="normal" />
								</filter>
							</defs>
							<mask maskUnits="userSpaceOnUse" x="197.3" y="379.3" width="186" height="46.7" id="SVGID_2_">
								<g class="st3">
								</g>
							</mask>
							<linearGradient id="SVGID_3_" gradientUnits="userSpaceOnUse" x1="2105.2727" y1="436.609" x2="2106.1257" y2="407.8276" gradientTransform="matrix(1 0 0 1 -1816.71 0)">
								<stop offset="0" style="stop-color:#E6E6E6" />
								<stop offset="1" style="stop-color:#E6E6E6" />
							</linearGradient>
							<path class="st4" d="M383.3,379.3c-0.1,0.3-0.1,0.5-0.2,0.8c0,0.1,0,0.2-0.1,0.2c-0.3,1.1-0.6,2.2-0.9,3.3
							c0,0.1-0.1,0.3-0.1,0.4c-0.1,0.4-0.2,0.8-0.4,1.2c-0.1,0.2-0.1,0.4-0.2,0.5c-0.1,0.4-0.2,0.7-0.3,1.1
							c-0.1,0.2-0.1,0.4-0.2,0.6c-0.1,0.3-0.2,0.7-0.3,1c-0.1,0.2-0.1,0.4-0.2,0.6c-0.1,0.3-0.2,0.7-0.3,1c-0.1,0.2-0.2,0.4-0.2,0.7
							c-0.1,0.3-0.2,0.6-0.4,1c-0.1,0.2-0.2,0.4-0.2,0.7c-0.1,0.3-0.2,0.6-0.4,1c-0.1,0.2-0.2,0.4-0.2,0.6c-0.1,0.3-0.3,0.7-0.4,1
							c-0.1,0.2-0.2,0.4-0.2,0.6c-0.2,0.5-0.4,0.9-0.6,1.4c0,0.1-0.1,0.2-0.1,0.2c0,0,0,0.1,0,0.1c-0.2,0.4-0.3,0.8-0.5,1.2
							c-0.1,0.1-0.1,0.3-0.2,0.4c-0.1,0.3-0.3,0.7-0.4,1c0,0.1-0.1,0.2-0.1,0.3c-0.2,0.4-0.4,0.8-0.6,1.2c0,0.1-0.1,0.2-0.1,0.3
							c-0.1,0.3-0.3,0.6-0.5,1c-0.1,0.1-0.1,0.3-0.2,0.4c-0.2,0.4-0.4,0.8-0.6,1.2c0,0.1-0.1,0.2-0.1,0.3c-0.1,0.3-0.3,0.5-0.4,0.8
							l-0.1,0.2c-0.1,0.3-0.3,0.5-0.4,0.8c-0.1,0.2-0.2,0.4-0.3,0.6c-0.1,0.2-0.3,0.5-0.4,0.7c-0.1,0.2-0.2,0.4-0.4,0.7
							c-0.1,0.2-0.2,0.5-0.4,0.7c-0.1,0.2-0.3,0.5-0.4,0.7c-0.1,0.2-0.2,0.4-0.4,0.7c-0.1,0.2-0.3,0.5-0.4,0.7
							c-0.1,0.2-0.3,0.5-0.4,0.7c-0.1,0.2-0.3,0.4-0.4,0.7c-0.1,0.2-0.3,0.5-0.4,0.7c-0.1,0.2-0.3,0.4-0.4,0.6
							c-0.1,0.2-0.3,0.5-0.4,0.7c-0.1,0.2-0.3,0.4-0.4,0.6c-0.1,0.2-0.3,0.5-0.5,0.7c-0.1,0.1-0.2,0.3-0.3,0.4c0,0,0,0,0,0
							c-0.6,1-1.3,2-2,3c-1.6,2.3-3.2,4.6-4.9,6.8h-64.8l0,0h-98.4v-46.7H383.3z" />
						</g>
					</mask>
					<path class="st1" d="M383.3,379.3c-0.1,0.3-0.1,0.5-0.2,0.8c0,0.1,0,0.2-0.1,0.2c-0.3,1.1-0.6,2.2-0.9,3.3
					c0,0.1-0.1,0.3-0.1,0.4c-0.1,0.4-0.2,0.8-0.4,1.2c-0.1,0.2-0.1,0.4-0.2,0.5c-0.1,0.4-0.2,0.7-0.3,1.1c-0.1,0.2-0.1,0.4-0.2,0.6
					c-0.1,0.3-0.2,0.7-0.3,1c-0.1,0.2-0.1,0.4-0.2,0.6c-0.1,0.3-0.2,0.7-0.3,1c-0.1,0.2-0.2,0.4-0.2,0.7c-0.1,0.3-0.2,0.6-0.4,1
					c-0.1,0.2-0.2,0.4-0.2,0.7c-0.1,0.3-0.2,0.6-0.4,1c-0.1,0.2-0.2,0.4-0.2,0.6c-0.1,0.3-0.3,0.7-0.4,1c-0.1,0.2-0.2,0.4-0.2,0.6
					c-0.2,0.5-0.4,0.9-0.6,1.4c0,0.1-0.1,0.2-0.1,0.2c0,0,0,0.1,0,0.1c-0.2,0.4-0.3,0.8-0.5,1.2c-0.1,0.1-0.1,0.3-0.2,0.4
					c-0.1,0.3-0.3,0.7-0.4,1c0,0.1-0.1,0.2-0.1,0.3c-0.2,0.4-0.4,0.8-0.6,1.2c0,0.1-0.1,0.2-0.1,0.3c-0.1,0.3-0.3,0.6-0.5,1
					c-0.1,0.1-0.1,0.3-0.2,0.4c-0.2,0.4-0.4,0.8-0.6,1.2c0,0.1-0.1,0.2-0.1,0.3c-0.1,0.3-0.3,0.5-0.4,0.8l-0.1,0.2
					c-0.1,0.3-0.3,0.5-0.4,0.8c-0.1,0.2-0.2,0.4-0.3,0.6c-0.1,0.2-0.3,0.5-0.4,0.7c-0.1,0.2-0.2,0.4-0.4,0.7
					c-0.1,0.2-0.2,0.5-0.4,0.7c-0.1,0.2-0.3,0.5-0.4,0.7c-0.1,0.2-0.2,0.4-0.4,0.7c-0.1,0.2-0.3,0.5-0.4,0.7
					c-0.1,0.2-0.3,0.5-0.4,0.7c-0.1,0.2-0.3,0.4-0.4,0.7c-0.1,0.2-0.3,0.5-0.4,0.7c-0.1,0.2-0.3,0.4-0.4,0.6
					c-0.1,0.2-0.3,0.5-0.4,0.7c-0.1,0.2-0.3,0.4-0.4,0.6c-0.1,0.2-0.3,0.5-0.5,0.7c-0.1,0.1-0.2,0.3-0.3,0.4c0,0,0,0,0,0
					c-0.6,1-1.3,2-2,3c-1.6,2.3-3.2,4.6-4.9,6.8h-64.8l0,0h-40.8c-27.7,0-51.7-19.4-57.6-46.7l0,0H383.3z" />
					<defs>
						<filter id="Adobe_OpacityMaskFilter_2_" filterUnits="userSpaceOnUse" x="197.3" y="447.1" width="190.1" height="123">
							<feFlood style="flood-color:white;flood-opacity:1" result="back" />
							<feBlend in="SourceGraphic" in2="back" mode="normal" />
						</filter>
					</defs>
					<mask maskUnits="userSpaceOnUse" x="197.3" y="447.1" width="190.1" height="123" id="SVGID_4_">
						<g class="st5">
							<defs>
								<filter id="Adobe_OpacityMaskFilter_3_" filterUnits="userSpaceOnUse" x="197.3" y="447.1" width="190.1" height="123">
									<feFlood style="flood-color:white;flood-opacity:1" result="back" />
									<feBlend in="SourceGraphic" in2="back" mode="normal" />
								</filter>
							</defs>
							<mask maskUnits="userSpaceOnUse" x="197.3" y="447.1" width="190.1" height="123" id="SVGID_4_">
								<g class="st6">
								</g>
							</mask>
							<linearGradient id="SVGID_5_" gradientUnits="userSpaceOnUse" x1="2107.6677" y1="592.2971" x2="2109.7478" y2="522.1025" gradientTransform="matrix(1 0 0 1 -1816.71 0)">
								<stop offset="0" style="stop-color:#E6E6E6" />
								<stop offset="1" style="stop-color:#E6E6E6" />
							</linearGradient>
							<polygon class="st7" points="264.3,523.4 387.4,523.4 387.4,570.1 197.3,570.1 197.3,523.4 198.5,523.4 274.6,447.1 
							340.3,447.1 						" />
						</g>
					</mask>
					<polygon class="st1" points="264.3,523.4 387.4,523.4 387.4,570.1 197.3,570.1 197.3,524.7 198.5,523.4 274.6,447.1 
					340.3,447.1 				" />
				</g>
			</g>
		</g>
	</g>
</svg>
